<svg width="23" height="23" viewBox="0 0 23 23" fill="none" xmlns="http://www.w3.org/2000/svg">
<path d="M11.5 0C9.22552 0 7.00211 0.674463 5.11095 1.9381C3.21978 3.20174 1.7458 4.99779 0.87539 7.09914C0.00498281 9.20049 -0.222756 11.5128 0.220974 13.7435C0.664704 15.9743 1.75997 18.0234 3.36828 19.6317C4.97658 21.24 7.02568 22.3353 9.25646 22.779C11.4872 23.2228 13.7995 22.995 15.9009 22.1246C18.0022 21.2542 19.7983 19.7802 21.0619 17.8891C22.3255 15.9979 23 13.7745 23 11.5C23 8.45001 21.7884 5.52494 19.6317 3.36827C17.4751 1.2116 14.55 0 11.5 0ZM6.82525 2.15886L7.44887 2.59168C7.58679 2.68778 7.69855 2.81678 7.774 2.967L7.93082 3.28064C8.01401 3.44732 8.14201 3.58752 8.30046 3.68549C8.45891 3.78346 8.64153 3.83532 8.82782 3.83525H9.9428C10.2088 3.83525 10.464 3.94093 10.6521 4.12905C10.8402 4.31717 10.9459 4.57232 10.9459 4.83836V4.85823C10.946 5.04453 10.8942 5.22718 10.7962 5.38564C10.6983 5.5441 10.558 5.67209 10.3913 5.75523L7.7165 7.09341C7.67907 7.11167 7.64292 7.13246 7.6083 7.15561L6.23928 8.06829C6.09398 8.16535 5.97636 8.29845 5.89794 8.45459L5.69459 8.86336C5.62431 9.00233 5.58769 9.15587 5.58769 9.3116C5.58769 9.46733 5.62431 9.62087 5.69459 9.75984C5.7886 9.94832 5.82095 10.1616 5.78709 10.3695C5.75322 10.5773 5.65485 10.7693 5.50589 10.9182L5.47609 10.9485C5.31793 11.1067 5.1114 11.2075 4.88938 11.2347C4.66735 11.262 4.44258 11.2143 4.25082 11.0991L2.50125 10.0484C2.29603 9.92502 2.14161 9.73241 2.06582 9.50527L1.63562 8.21414C1.61575 8.21414 1.60164 8.20786 1.58335 8.20734C2.46072 5.57656 4.34591 3.4013 6.82525 2.15886ZM12.5878 15.2234C12.5879 15.296 12.5762 15.3682 12.5533 15.4372L12.0907 16.8245C12.0577 16.9242 12.0018 17.0147 11.9276 17.089L11.0912 17.9254C10.9966 18.0198 10.9322 18.1403 10.9062 18.2714L10.4634 20.4836C10.443 20.5843 10.3998 20.679 10.3372 20.7606C10.2746 20.8421 10.1942 20.9082 10.1022 20.954L9.73946 21.136C9.61226 21.1991 9.46848 21.2208 9.32831 21.198C9.18814 21.1752 9.05863 21.1091 8.95798 21.0089L8.28575 20.3367C8.23438 20.285 8.19151 20.2256 8.15873 20.1605L7.73166 19.3064C7.68502 19.2123 7.66069 19.1088 7.66057 19.0037V16.847C7.66034 16.7213 7.62523 16.5981 7.55915 16.4911C7.49307 16.3841 7.39862 16.2976 7.2863 16.2411L6.72593 15.9615C6.62018 15.909 6.53006 15.8297 6.46457 15.7315L5.58273 14.4085C5.50848 14.2974 5.46883 14.1668 5.46878 14.0331V13.5627C5.46911 13.437 5.50426 13.314 5.57033 13.2071C5.6364 13.1002 5.73081 13.0138 5.84305 12.9574L6.36212 12.696C6.49324 12.6307 6.5995 12.5245 6.66478 12.3933L6.92614 11.8743C6.98246 11.7623 7.06866 11.668 7.17522 11.602C7.28177 11.5359 7.40452 11.5006 7.52989 11.5H8.47394C8.56285 11.4999 8.65091 11.5174 8.73307 11.5514C8.81523 11.5854 8.88988 11.6352 8.95275 11.6981L9.10382 11.8492C9.23091 11.9761 9.40306 12.0475 9.58264 12.0478H9.72273C9.9025 12.0485 10.0747 12.1204 10.2016 12.2478C10.3284 12.3751 10.3997 12.5476 10.3997 12.7274C10.3999 12.8529 10.435 12.976 10.501 13.0828C10.567 13.1897 10.6613 13.2762 10.7734 13.3327L12.2161 14.0535C12.3284 14.1101 12.4227 14.1966 12.4887 14.3036C12.5547 14.4105 12.5897 14.5337 12.5899 14.6594L12.5878 15.2234ZM15.3426 5.28686C15.3892 5.17394 15.4576 5.07128 15.5438 4.98473L16.48 4.04905C16.5506 3.97856 16.6319 3.9198 16.721 3.87498L17.7037 3.38361C17.7896 3.34266 17.8813 3.31533 17.9755 3.30259C19.1044 4.19255 20.0381 5.30513 20.7188 6.5712H20.2567C20.0103 6.57122 19.774 6.47346 19.5997 6.29939L19.4867 6.18648C19.3124 6.01226 19.0761 5.91432 18.8297 5.91414H18.1198C17.9747 5.91373 17.8314 5.94739 17.7016 6.01241L16.7806 6.47345C16.6507 6.53826 16.5075 6.57173 16.3624 6.5712H16.1967C16.044 6.5711 15.8936 6.53336 15.759 6.46132C15.6243 6.38929 15.5095 6.28518 15.4246 6.15821C15.3398 6.03123 15.2875 5.8853 15.2725 5.73333C15.2574 5.58135 15.2801 5.42801 15.3384 5.28686H15.3426ZM19.2834 18.4622L19.2155 18.2955C19.1784 18.1837 19.1595 18.0667 19.1595 17.9489V16.7419C19.1595 16.5719 19.1199 16.4042 19.044 16.2521L18.1794 14.524C18.1035 14.3719 18.0639 14.2042 18.0639 14.0342V13.8742C18.0639 13.6876 18.0162 13.5041 17.9253 13.3411C17.8344 13.1781 17.7034 13.041 17.5447 12.9429C17.386 12.8448 17.2048 12.7888 17.0184 12.7804C16.8319 12.7719 16.6465 12.8113 16.4795 12.8946L16.1047 13.0823C15.9527 13.1581 15.7853 13.1977 15.6154 13.1978H15.5679C15.338 13.1974 15.114 13.1249 14.9276 12.9904C14.7411 12.8559 14.6016 12.6662 14.5287 12.4482L14.2872 11.7232C14.2499 11.6115 14.2308 11.4944 14.2307 11.3766V10.4979C14.2307 10.3176 14.2752 10.1401 14.3603 9.98119C14.4454 9.82225 14.5684 9.68678 14.7184 9.58682L15.7158 8.92191C15.8202 8.85224 15.9359 8.80114 16.0577 8.77084L17.7544 8.34639C17.9567 8.29588 18.1692 8.30404 18.3671 8.36991L19.538 8.76039C19.6499 8.79765 19.7671 8.81671 19.8851 8.81684H21.5939C22.0475 10.4894 22.0737 12.2492 21.67 13.9345C21.2663 15.6198 20.4457 17.1767 19.2834 18.4622Z" fill="white"/>
</svg>
