<svg width="27" height="22" viewBox="0 0 27 22" fill="none" xmlns="http://www.w3.org/2000/svg">
<path d="M8.12014 8.1495L13.4999 20.0808L18.8799 8.1495H8.12014ZM16.0676 0H10.9324L8.10047 6.53218H18.8995L16.0676 0ZM6.31072 8.1495H0L12.3355 22L6.31072 8.1495ZM20.6495 0.240859C20.5729 0.164582 20.4815 0.104015 20.3809 0.0626757C20.2802 0.0213367 20.1721 4.99352e-05 20.063 5.17358e-05H17.8582L20.6901 6.53223H26.9705L20.6495 0.240859ZM20.6893 8.1495L14.6644 22L27 8.1495H20.6893ZM6.937 0C6.71657 0 6.50526 0.0867568 6.35043 0.240807L0.0294258 6.53218H6.30988L9.14172 0H6.937Z" fill="white"/>
</svg>
