<svg width="15" height="26" viewBox="0 0 15 26" fill="none" xmlns="http://www.w3.org/2000/svg">
<path d="M14.9587 8.91718C14.9232 8.84238 14.8668 8.77907 14.796 8.7347C14.7252 8.69034 14.6429 8.66675 14.559 8.66672H9.33103L14.4906 0.665187C14.5328 0.599665 14.5564 0.524204 14.5588 0.446686C14.5612 0.369168 14.5424 0.292436 14.5043 0.224505C14.4662 0.156524 14.4103 0.0998278 14.3423 0.0603366C14.2743 0.0208454 14.1967 7.88607e-06 14.1177 0L7.05897 0C6.97699 1.06325e-05 6.89664 0.0224329 6.82691 0.0647564C6.75718 0.10708 6.70081 0.167634 6.66413 0.239638L0.0465062 13.2397C0.0129108 13.3057 -0.00294361 13.379 0.000449712 13.4528C0.00384303 13.5265 0.0263714 13.5981 0.0658938 13.6609C0.105453 13.7237 0.160705 13.7757 0.226409 13.8117C0.292114 13.8477 0.366096 13.8666 0.441341 13.8667H4.97793L0.0345634 25.3986C-0.00619587 25.4942 -0.0108121 25.6009 0.021548 25.6995C0.0539081 25.7982 0.121111 25.8822 0.211016 25.9364C0.301045 25.9904 0.407763 26.011 0.511895 25.9944C0.616028 25.9779 0.71071 25.9253 0.77884 25.8462L14.8965 9.37949C14.9506 9.31625 14.9852 9.23914 14.9962 9.15724C15.0072 9.07534 14.9942 8.99205 14.9587 8.91718Z" fill="white"/>
</svg>
