<svg width="20" height="24" viewBox="0 0 20 24" fill="none" xmlns="http://www.w3.org/2000/svg">
<path d="M19.9918 21.9525C20.0163 22.2231 19.9858 22.496 19.9023 22.7541C19.8187 23.0121 19.684 23.2496 19.5064 23.4517C19.3567 23.6229 19.1736 23.7602 18.969 23.8546C18.7643 23.949 18.5426 23.9986 18.3181 24H1.68187C1.45739 23.9986 1.23569 23.949 1.03103 23.8546C0.826375 23.7602 0.643293 23.6229 0.493563 23.4517C0.316028 23.2496 0.181258 23.0121 0.0977293 22.7541C0.0142002 22.496 -0.0162821 22.2231 0.0081997 21.9525C0.418248 16.9922 3.28022 13.0342 7.09619 11.672C7.41134 11.9767 7.76964 12.2308 8.15897 12.4259L7.91628 13.1884L6.8535 16.6066C6.75857 16.9113 6.74498 17.2364 6.81414 17.5482C6.8833 17.86 7.03269 18.1472 7.24682 18.38L8.80333 20.042C8.95667 20.2097 9.142 20.3433 9.34784 20.4347C9.55368 20.5261 9.77564 20.5732 10 20.5732C10.2244 20.5732 10.4463 20.5261 10.6522 20.4347C10.858 20.3433 11.0433 20.2097 11.1967 20.042L12.7532 18.38C12.9673 18.1472 13.1167 17.86 13.1859 17.5482C13.255 17.2364 13.2414 16.9113 13.1465 16.6066L12.0837 13.1884L11.841 12.4259C12.2304 12.2308 12.5887 11.9767 12.9038 11.672C16.7198 13.0342 19.5818 16.9922 19.9918 21.9525ZM6.35977 10.6954L7.64013 11.4921L8.51044 11.2951C9.00197 11.2029 9.50032 11.1542 10 11.1494C10.4997 11.1542 10.998 11.2029 11.4896 11.2951C11.7908 11.3465 12.0753 11.415 12.3599 11.4921L13.6402 10.6954C14.5929 9.92181 15.2868 8.86395 15.6257 7.66848C15.9646 6.47302 15.9317 5.19921 15.5317 4.02373C15.1316 2.84825 14.3841 1.82935 13.3929 1.10836C12.4017 0.38736 11.2159 0 10 0C8.78408 0 7.59829 0.38736 6.60709 1.10836C5.6159 1.82935 4.86842 2.84825 4.46834 4.02373C4.06826 5.19921 4.0354 6.47302 4.37432 7.66848C4.71323 8.86395 5.40713 9.92181 6.35977 10.6954ZM10.7448 14.5762L10.2259 12.88L10.2176 12.8628H9.77405V12.88L9.24685 14.5762L8.71128 16.2897L8.45186 17.1292L10.0167 18.8598L11.5398 17.1978L11.2636 16.2897L10.7448 14.5762Z" fill="white"/>
</svg>
