<svg width="27" height="22" viewBox="0 0 27 22" fill="none" xmlns="http://www.w3.org/2000/svg">
<path d="M26.4545 0.697018C26.4297 0.634018 26.3884 0.5789 26.335 0.537472C26.2817 0.496044 26.2181 0.46984 26.1512 0.461623C26.0842 0.453405 26.0163 0.463477 25.9545 0.490778C25.8928 0.518079 25.8395 0.561597 25.8004 0.616747C25.3265 1.28383 24.7048 1.50619 23.9845 1.7637C23.4037 1.97143 22.8031 2.18607 22.1541 2.65402C21.2361 3.31576 20.8162 4.21782 21.0256 5.07281L21.0032 5.10161C20.6199 4.54323 20.2028 4.02678 19.7627 3.56561C17.7034 1.40803 14.826 0.110898 11.868 0.00690369C11.7376 0.00232218 11.6052 0 11.4743 0C8.17133 0 5.00985 1.48265 2.80059 4.0677C0.602886 6.63937 -0.371209 9.98708 0.128183 13.2524C0.170314 13.5275 0.222161 13.8009 0.283626 14.0723C1.0959 17.6623 3.17054 20.3933 5.97563 21.5648C6.66709 21.8536 7.36456 22 8.04839 22C9.74739 22 11.2314 21.0875 12.12 19.4965C12.4577 18.8912 12.6757 18.2651 12.7675 17.6356C12.8216 17.2641 12.7846 16.8929 12.7487 16.5331C12.7118 16.1628 12.6769 15.8129 12.7327 15.4605C12.8607 14.6529 13.4225 14.1706 14.2357 14.1706C14.467 14.1706 14.7034 14.2089 14.9395 14.2844C14.6631 14.7933 14.4121 15.2794 14.1928 15.7299C13.728 16.6846 13.4073 17.4752 13.2395 18.0796C13.1361 18.4523 12.8612 19.4429 13.5314 19.91C13.7442 20.0583 14.014 20.1106 14.2949 20.0581C14.5479 20.0109 15.318 19.8673 17.5061 17.366C18.0934 16.6947 18.7262 15.9179 19.3877 15.0567C21.0857 14.4825 22.4071 13.0534 22.7567 11.4112C22.8442 11.0007 22.8807 10.5613 22.8651 10.105C23.5009 9.11841 24.0586 8.19784 24.6197 7.20823C24.6305 7.18915 24.6411 7.16882 24.6516 7.14798C25.466 6.92399 26.1675 6.28753 26.5793 5.39753C27.1804 4.09857 27.1361 2.42914 26.4545 0.697018ZM17.2746 6.84786C16.9801 7.31762 16.4737 7.5981 15.92 7.5981C15.6194 7.5981 15.3253 7.51268 15.0697 7.35101C14.7083 7.12244 14.457 6.76627 14.3624 6.3481C14.2679 5.92993 14.3409 5.4997 14.5686 5.13676C14.8632 4.667 15.3696 4.38652 15.9233 4.38652C16.224 4.38652 16.518 4.47194 16.7736 4.63367C17.135 4.86212 17.3862 5.21828 17.4808 5.63652C17.5754 6.05476 17.5022 6.48492 17.2746 6.84786ZM19.3502 9.757C20.1586 8.56097 21.0135 7.3721 21.8255 6.31458C21.9641 6.4395 22.1105 6.55543 22.2638 6.66165C22.5279 6.84573 22.8043 6.98807 23.0865 7.08553C22.4009 8.2628 21.6638 9.42914 20.7713 10.7492C19.3048 12.9189 17.78 14.9343 16.4777 16.4242C15.7503 17.2564 15.1137 17.899 14.6232 18.2969C14.8125 17.6888 15.1743 16.8541 15.6779 15.8652C16.5784 14.0968 17.8825 11.9276 19.3502 9.757ZM5.15679 9.7467C4.85575 9.74663 4.56088 9.66094 4.30633 9.49955C3.94494 9.27104 3.69374 8.915 3.59911 8.4967C3.50449 8.07847 3.57774 7.64824 3.80543 7.2853C4.09988 6.8156 4.60627 6.53512 5.15992 6.53512C5.46068 6.53512 5.75475 6.62054 6.01038 6.78228C6.75641 7.25411 6.98117 8.24742 6.51159 8.9964C6.21683 9.46623 5.71037 9.7467 5.15679 9.7467ZM3.48061 13.2823C3.77518 12.8125 4.28151 12.532 4.83522 12.532C5.13624 12.5321 5.43107 12.6178 5.68562 12.7792C6.04701 13.0077 6.29821 13.3638 6.39283 13.782C6.48752 14.2001 6.41427 14.6303 6.18651 14.9934C5.89207 15.463 5.38567 15.7435 4.83203 15.7435C4.53095 15.7434 4.23604 15.6578 3.98144 15.4964C3.62005 15.2678 3.36892 14.9118 3.27435 14.4935C3.17985 14.0754 3.25316 13.6452 3.48061 13.2823ZM8.60153 3.74624C8.89611 3.27647 9.4025 2.996 9.95614 2.996C10.2571 2.99609 10.5519 3.08176 10.8064 3.24309C11.5525 3.71479 11.7773 4.70817 11.3076 5.45728C11.0129 5.9271 10.5065 6.20758 9.95289 6.20758C9.65226 6.20758 9.35819 6.12216 9.10255 5.96043C8.74123 5.73198 8.49009 5.37588 8.39546 4.95758C8.30071 4.5394 8.37396 4.10924 8.60153 3.74624Z" fill="white"/>
</svg>
