<svg width="23" height="18" viewBox="0 0 23 18" fill="none" xmlns="http://www.w3.org/2000/svg">
<path d="M19.8098 3.13043H17.462L16.1658 1.17391C15.6766 0.440217 14.8207 0 13.9402 0H8.55979C7.67935 0 6.82338 0.440217 6.33425 1.17391L5.03805 3.13043H2.69023C2.33666 3.12941 1.98637 3.1983 1.65952 3.33313C1.33267 3.46797 1.03569 3.66609 0.785679 3.9161C0.535666 4.16611 0.337545 4.46309 0.202711 4.78994C0.067877 5.11679 -0.00101024 5.46708 1.11946e-05 5.82065V15.3098C-0.00101024 15.6633 0.067877 16.0136 0.202711 16.3405C0.337545 16.6673 0.535666 16.9643 0.785679 17.2143C1.03569 17.4643 1.33267 17.6625 1.65952 17.7973C1.98637 17.9321 2.33666 18.001 2.69023 18H19.8098C20.1634 18.001 20.5136 17.9321 20.8405 17.7973C21.1673 17.6625 21.4643 17.4643 21.7143 17.2143C21.9643 16.9643 22.1625 16.6673 22.2973 16.3405C22.4321 16.0136 22.501 15.6633 22.5 15.3098V5.82065C22.501 5.46708 22.4321 5.11679 22.2973 4.78994C22.1625 4.46309 21.9643 4.16611 21.7143 3.9161C21.4643 3.66609 21.1673 3.46797 20.8405 3.33313C20.5136 3.1983 20.1634 3.12941 19.8098 3.13043ZM11.25 15.7989C7.89946 15.7989 5.18479 13.0842 5.18479 9.73369C5.18479 6.38315 7.89946 3.69293 11.25 3.69293C14.6005 3.69293 17.3152 6.4076 17.3152 9.75815C17.3152 13.0842 14.6005 15.7989 11.25 15.7989ZM19.4674 6.92119H18.3913C17.9511 6.89673 17.6087 6.52989 17.6332 6.08967C17.6576 5.67391 17.9755 5.35597 18.3913 5.33152H19.3696C19.8098 5.30706 20.1766 5.64945 20.2011 6.08967C20.2255 6.52989 19.9076 6.89673 19.4674 6.92119Z" fill="white"/>
<path d="M11.25 6.38318C9.3913 6.38318 7.875 7.89948 7.875 9.75818C7.875 11.6169 9.3913 13.1087 11.25 13.1087C13.1087 13.1087 14.625 11.5924 14.625 9.73372C14.625 7.87503 13.1087 6.38318 11.25 6.38318Z" fill="white"/>
</svg>
